<svg viewBox="0 0 166 166" fill="none" xmlns="http://www.w3.org/2000/svg">
    <path d="M81.0826 156.717C72.1256 156.041 63.4982 151.698 57.1308 145.495C54.2047 142.607 51.6713 139.431 49.8578 135.726C48.123 132.266 47.239 128.181 46.7261 124.327C46.485 122.49 46.4228 120.622 46.4087 118.819C46.4161 116.497 46.4235 114.175 46.6579 111.888C47.1574 107.492 49.2458 103.34 51.7666 99.7766C54.4357 96.0039 57.7817 92.7415 61.3025 89.8543C65.2159 86.6789 69.566 83.6865 74.1347 81.5407C78.8824 79.3644 84.2987 78.5101 89.2975 80.3798C93.6327 82.0316 96.7775 85.7661 97.2821 90.4318C97.7428 94.6262 96.2045 98.9788 93.6704 102.249C90.8571 105.826 86.7597 107.928 82.2555 108.515C72.7758 109.734 62.8735 104.615 56.2484 98.1983C52.807 94.883 49.8279 90.8254 48.2671 86.2302C46.6449 81.277 46.9083 76.1482 48.7605 71.2629C50.7785 66.0545 54.0581 61.3299 57.1895 56.8149C60.552 51.9287 64.1241 47.1909 68.0019 42.7322C75.644 33.7974 84.2206 25.5866 93.4699 18.2921C95.7779 16.4969 98.0684 14.8151 100.473 13.1508C102.615 11.6786 105.017 14.9509 102.875 16.423C84.9165 29.0039 69.5048 45.0534 57.6254 63.4448C55.035 67.4619 52.2789 71.8021 51.4348 76.5515C50.6777 80.7335 51.6578 84.9493 53.7157 88.5753C55.9177 92.3977 59.0186 95.6608 62.5163 98.2297C65.8525 100.716 69.7122 102.817 73.7939 103.85C77.7621 104.864 81.9829 104.988 85.8318 103.371C88.9955 102.056 91.4294 99.0601 92.6802 95.825C93.8002 92.6861 93.6892 89.2423 91.6363 86.7206C89.0374 83.5925 84.4802 83.0102 80.657 83.702C75.7602 84.5777 71.3273 87.7317 67.3045 90.4838C64.0496 92.7728 60.9696 95.4371 58.1952 98.3806C55.5344 101.341 53.1138 104.63 51.6624 108.415C50.2939 112.038 50.4315 116.067 50.425 119.899C50.4532 123.505 51.1317 127.035 52.1682 130.505C53.0605 133.778 54.642 136.343 56.7256 139.044C61.3906 144.986 68.2766 149.701 75.6936 151.709C77.7017 152.249 79.6311 152.545 81.6914 152.744C82.7783 152.853 83.5297 154.013 83.3732 155.035C83.1992 156.17 82.1695 156.825 81.0826 156.717Z"
          fill="black"/>
    <path d="M86.1 53.1145C90.8832 44.2643 94.9067 35.0653 98.3321 25.6004C99.1514 23.2866 99.988 20.8593 100.694 18.5281C100.946 17.6375 101.395 16.6028 101.373 15.612C101.364 14.9136 101.137 14.8788 100.439 14.888C99.3997 14.8449 98.3915 14.9808 97.3833 15.1167C96.1481 15.2178 94.8956 15.4324 93.643 15.6469C91.2687 15.98 88.9251 16.492 86.5641 17.1176C81.3533 18.526 76.2344 20.4712 71.4519 22.8746C70.505 23.3684 69.1646 22.6402 68.8498 21.6627C68.4389 20.5542 69.0014 19.5369 70.0617 19.0605C74.7788 16.7052 79.7187 14.7906 84.8641 13.4302C87.4695 12.726 90.1229 12.0872 92.7416 11.6755C95.1813 11.2943 97.7519 10.8171 100.187 10.8419C102.916 10.8535 105.19 12.3057 105.454 15.1339C105.639 17.7178 104.409 20.4334 103.638 22.8127C101.913 28.0078 99.9601 33.1681 97.798 38.1802C95.37 43.7904 92.7804 49.3177 89.8677 54.6794C89.3707 55.6487 88.2449 56.1731 87.2102 55.7241C86.1581 55.3886 85.5549 54.0184 86.1 53.1145Z"
          fill="black"/>
</svg>
