<svg viewBox="0 0 218 102" fill="none" xmlns="http://www.w3.org/2000/svg">
    <path d="M6.64158 29.0617C7.88404 29.443 8.0064 30.7288 8.22591 31.7013C9.60515 37.5228 11.1709 43.303 12.1771 49.2071C14.2857 61.3587 16.0834 73.5792 18.0608 85.6869C18.2182 86.6732 18.4377 87.6458 18.7883 88.6622C19.8104 84.0595 20.0661 79.4076 21.1572 74.8625C21.4748 74.8651 21.7303 74.8815 22.048 74.8841C22.1849 75.6561 22.453 76.472 22.4034 77.2853C21.9311 83.6628 21.4034 90.1254 20.8067 96.5304C20.589 98.9126 19.3864 99.6166 17.6825 98.3893C16.3857 97.4365 15.1928 96.2419 14.1242 95.0198C11.8356 92.3172 9.6024 89.5295 7.36916 86.7418C5.92179 84.8742 5.89459 84.5884 5.816 81.7612C9.99796 83.6797 11.7862 88.4624 15.2969 91.3319C15.2707 90.3895 15.3892 89.6338 15.2591 88.9332C12.394 70.1657 9.5357 51.4697 6.6706 32.7022C6.49967 31.573 5.88673 30.4688 6.64158 29.0617Z" fill="black"/>
    <path d="M64.8408 13.545C66.2192 14.3551 66.2114 15.9496 66.3509 17.1912C67.2603 24.6411 68.388 32.093 68.8609 39.5389C69.8772 54.8742 70.5298 70.2061 71.4011 85.4514C71.4678 86.6923 71.6072 87.9338 71.8917 89.2653C73.5911 83.9658 74.4186 78.3924 76.1903 73.1821C76.5536 73.2741 76.8442 73.3654 77.2075 73.4573C77.2755 74.4324 77.4886 75.4975 77.3383 76.4706C76.0642 84.0774 74.717 91.772 73.2974 99.3775C72.7743 102.207 71.3166 102.725 69.5073 100.76C68.1323 99.2409 66.9042 97.4577 65.8215 95.6758C63.5125 91.7565 61.2766 87.7492 59.0407 83.7419C57.5987 81.0709 57.6004 80.7165 57.8355 77.2638C62.4021 80.7612 63.8992 87.0649 67.588 91.5286C67.6664 90.3777 67.889 89.4938 67.8205 88.6073C66.699 65.0323 65.577 41.5459 64.4554 17.9709C64.3896 16.5528 63.8149 15.0415 64.8408 13.545Z" fill="black"/>
    <path d="M110.718 0.818365C112.037 1.88403 111.923 3.68249 111.979 5.09884C112.388 13.6057 113.014 22.1388 112.987 30.5931C112.975 48.01 112.601 65.3831 112.451 82.6826C112.434 84.0902 112.49 85.5066 112.685 87.0403C114.733 81.2468 115.93 75.0484 118.045 69.3635C118.401 69.5072 118.684 69.6422 119.04 69.7859C119.043 70.8937 119.184 72.119 118.969 73.2006C117.191 81.6445 115.333 90.1796 113.41 98.606C112.699 101.742 111.212 102.166 109.54 99.7492C108.27 97.8842 107.165 95.737 106.205 93.6073C104.166 88.9307 102.205 84.163 100.244 79.3952C98.9848 76.2226 99.0102 75.8229 99.4754 71.9524C103.794 76.401 104.865 83.6789 108.243 89.1214C108.398 87.8313 108.679 86.8584 108.67 85.8505C109.128 59.1238 109.58 32.4971 110.038 5.7704C110.067 4.16298 109.595 2.39433 110.718 0.818365Z" fill="black"/>
    <path d="M160.223 5.16153C161.245 6.43681 160.973 8.11128 160.884 9.45977C160.407 17.5738 160.113 25.757 159.27 33.7327C157.571 50.1722 155.566 66.4965 153.76 82.797C153.609 84.1224 153.519 85.4709 153.537 86.9585C155.846 81.9071 157.469 76.3 159.824 71.3647C160.114 71.573 160.342 71.7583 160.632 71.9665C160.527 73.0129 160.529 74.1984 160.24 75.1756C157.904 82.784 155.492 90.4624 153.033 98.0248C152.123 100.84 150.813 100.937 149.621 98.3144C148.719 96.2949 147.985 94.0424 147.372 91.836C146.086 87.0051 144.875 82.1041 143.665 77.2032C142.899 73.9513 142.959 73.5792 143.732 70.0203C146.984 75.1008 147.192 82.1899 149.546 88.017C149.803 86.8307 150.137 85.9696 150.228 85.0163C153.211 59.879 156.179 34.8349 159.162 9.69763C159.343 8.18613 159.112 6.42023 160.223 5.16153Z" fill="black"/>
    <path d="M206.998 28.9953C207.92 30.3018 207.577 31.5009 207.426 32.508C206.572 38.5874 205.892 44.7785 204.693 50.6347C202.259 62.7174 199.536 74.6141 197.005 86.5557C196.796 87.5255 196.644 88.5326 196.588 89.6807C199.056 86.5396 200.89 82.7521 203.397 79.7148C203.665 79.9675 203.877 80.1829 204.145 80.4356C203.993 81.2056 203.937 82.1166 203.612 82.7749C200.994 87.8713 198.299 92.9971 195.566 98.0191C194.553 99.8903 193.288 99.5458 192.268 97.15C191.498 95.3105 190.901 93.3456 190.419 91.4552C189.416 87.3333 188.489 83.1821 187.563 79.0309C186.984 76.2882 187.06 76.0217 187.976 73.5353C190.859 78.4776 190.714 83.9887 192.697 89.2173C193.002 88.3885 193.365 87.8339 193.498 87.1306C197.591 68.7782 201.665 50.4924 205.757 32.14C206.005 31.037 205.868 29.6068 206.998 28.9953Z" fill="black"/>
</svg>
