<svg width="40" height="40" viewBox="0 0 40 40" fill="none" xmlns="http://www.w3.org/2000/svg">
<path d="M39.9241 7.26208L38.9655 11.5379L37.931 16.1517L36.8965 20.7724L36.1448 24.1242C36.1186 24.2413 36.0624 24.3497 35.9815 24.4384C35.9006 24.5272 35.798 24.5933 35.6838 24.6302C35.5695 24.6672 35.4476 24.6736 35.3301 24.649C35.2126 24.6243 35.1035 24.5694 35.0138 24.4897C34.0611 23.5823 32.9116 22.9073 31.6551 22.5173C30.104 22.0814 28.4815 21.9595 26.8827 22.1586C25.1835 22.3595 23.4978 22.6612 21.8344 23.0621C20.1703 23.4574 18.4847 23.7568 16.7862 23.9586C15.1875 24.1579 13.5655 24.0359 12.0138 23.6V23.5931C10.3602 23.0741 8.89676 22.0785 7.80685 20.7311L8.84134 16.1173L9.88272 11.4966L10.9172 6.88277L11.9517 2.26208C13.0413 3.6113 14.5047 4.60924 16.1586 5.13105C17.7075 5.56691 19.3275 5.68829 20.9241 5.48967C22.6231 5.29116 24.3089 4.99178 25.9724 4.59312C27.639 4.19836 29.3268 3.89902 31.0275 3.69657C32.6241 3.49766 34.2443 3.61958 35.7931 4.05519C37.3328 4.53276 38.7087 5.43086 39.7655 6.64829C39.8391 6.73046 39.8919 6.82908 39.9195 6.93588C39.9471 7.04268 39.9487 7.15455 39.9241 7.26208Z" fill="#E6E7E8"/>
<path d="M15.1241 9.75174C14.7724 11.2897 14.4275 12.8207 14.0827 14.3586C12.4313 13.8393 10.9701 12.8436 9.88272 11.4966L10.9172 6.88277C12.0069 8.23198 13.4702 9.22992 15.1241 9.75174ZM13.0482 18.9793L12.8413 19.9035C12.5655 21.1379 12.2896 22.3676 12.0138 23.5931C10.3602 23.0741 8.89676 22.0785 7.80685 20.731L8.84134 16.1173C9.92927 17.4668 11.3935 18.463 13.0482 18.9793ZM20.9241 5.48967L19.8896 10.1104C18.2931 10.3095 16.6728 10.1876 15.1241 9.75174C15.462 8.21381 15.8138 6.66898 16.1586 5.13105C17.7075 5.56691 19.3275 5.68829 20.9241 5.48967ZM22.8689 18.4414L22.662 19.3655L21.8344 23.0621C20.1703 23.4574 18.4847 23.7568 16.7862 23.9586L17.6138 20.2621L17.8206 19.3379C19.519 19.1349 21.2045 18.8356 22.8689 18.4414ZM31.0275 3.69656L29.9931 8.31036C28.2917 8.51174 26.6034 8.81381 24.9379 9.2138L25.9724 4.59312C27.639 4.19835 29.3268 3.89901 31.0275 3.69656ZM32.6896 17.9104L32.4827 18.8276L31.6551 22.5173C30.104 22.0814 28.4815 21.9595 26.8827 22.1586L27.7103 18.469L27.9172 17.5448C29.5165 17.3448 31.1393 17.469 32.6896 17.9104ZM37.931 16.1517L36.8965 20.7724C35.8066 19.425 34.3431 18.4294 32.6896 17.9104L33.7241 13.2897C35.3776 13.8087 36.8411 14.8043 37.931 16.1517ZM39.9241 7.26208L38.9655 11.5379C37.8756 10.1905 36.4121 9.19487 34.7586 8.67587L35.7931 4.05518C37.3328 4.53276 38.7087 5.43086 39.7655 6.64829C39.8391 6.73045 39.8919 6.82908 39.9195 6.93588C39.9471 7.04268 39.9487 7.15454 39.9241 7.26208Z" fill="#2C2F38"/>
<path d="M34.7586 8.67589L33.7241 13.2897C32.1764 12.8484 30.5555 12.7241 28.9586 12.9242L29.9931 8.31038C31.5903 8.11038 33.211 8.23452 34.7586 8.67589ZM18.8551 14.7242L17.8207 19.338C16.222 19.544 14.5981 19.422 13.0482 18.9793L14.0827 14.3587C15.6331 14.8 17.2558 14.9242 18.8551 14.7242ZM24.9379 9.21383L23.9034 13.8207C22.2399 14.221 20.5542 14.5227 18.8551 14.7242L19.8896 10.1104C21.5881 9.90791 23.2736 9.60858 24.9379 9.21383Z" fill="#2C2F38"/>
<path d="M28.9586 12.9242C28.6069 14.4621 28.2621 16.0069 27.9172 17.5449C26.2187 17.7467 24.5331 18.0461 22.869 18.4414L23.9034 13.8207C25.5701 13.426 27.2579 13.1266 28.9586 12.9242Z" fill="#2C2F38"/>
<path d="M12.6759 1.91035C12.6734 2.04954 12.6572 2.18814 12.6276 2.32415L4.51035 38.5241C4.45635 38.7668 4.35487 38.9965 4.21175 39.1998C4.06863 39.4031 3.8867 39.5761 3.67644 39.7088C3.46618 39.8414 3.23175 39.9312 2.98664 39.9729C2.74153 40.0146 2.49059 40.0074 2.24828 39.9517L2.17931 39.931C1.70679 39.8077 1.30049 39.506 1.04583 39.0892C0.791174 38.6725 0.708001 38.1733 0.813795 37.6966L8.93104 1.48966C9.04259 1.0009 9.34327 0.576251 9.76723 0.308688C10.1912 0.0411261 10.7039 -0.0475495 11.1931 0.0620761H11.2069C11.624 0.159984 11.9958 0.395682 12.2624 0.731071C12.529 1.06646 12.6746 1.48194 12.6759 1.91035Z" fill="#AF8066"/>
<path d="M12.6758 1.91038C12.6734 2.04956 12.6572 2.18816 12.6275 2.32417L4.51029 38.5242C4.4563 38.7669 4.35482 38.9965 4.2117 39.1998C4.06858 39.4031 3.88665 39.5761 3.67639 39.7088C3.46613 39.8415 3.23169 39.9313 2.98658 39.973C2.74148 40.0147 2.49054 40.0075 2.24823 39.9518L2.17926 39.9311L11.2068 0.0621033C11.6239 0.160012 11.9958 0.395709 12.2624 0.731098C12.5289 1.06649 12.6746 1.48197 12.6758 1.91038Z" fill="#7F5B53"/>
</svg>
